<?xml version="1.0" standalone="no"?>
<!DOCTYPE svg PUBLIC "-//W3C//DTD SVG 20010904//EN"
 "http://www.w3.org/TR/2001/REC-SVG-20010904/DTD/svg10.dtd">
<svg version="1.0" xmlns="http://www.w3.org/2000/svg"
 width="2000.000000pt" height="2000.000000pt" viewBox="0 0 2000.000000 2000.000000"
 preserveAspectRatio="xMidYMid meet">
<metadata>
Created by potrace 1.11, written by Peter Selinger 2001-2013
</metadata>
<g transform="translate(0.000000,2000.000000) scale(0.100000,-0.100000)"
fill="#000000" stroke="none">
<path d="M9927 17834 c-1 -1 -83 -4 -182 -8 -99 -3 -191 -8 -205 -10 -14 -3
-54 -7 -90 -10 -123 -12 -196 -22 -445 -63 -237 -39 -726 -186 -948 -287 -18
-8 -59 -26 -92 -41 -180 -80 -383 -189 -570 -307 -60 -38 -119 -74 -129 -81
-41 -25 -326 -237 -390 -291 -284 -235 -597 -547 -786 -786 -19 -24 -47 -58
-61 -75 -92 -108 -328 -456 -409 -600 -18 -33 -42 -76 -53 -95 -41 -73 -146
-289 -187 -385 -23 -55 -46 -109 -51 -120 -43 -101 -145 -402 -164 -485 -2 -8
-15 -60 -29 -115 -25 -99 -69 -313 -80 -390 -4 -23 -9 -52 -11 -65 -5 -23 -9
-54 -20 -155 -2 -22 -7 -58 -9 -80 -7 -62 -18 -193 -21 -265 -2 -36 -4 -597
-5 -1247 l-1 -1183 -222 -1 c-228 0 -249 -2 -352 -20 -285 -50 -559 -248 -717
-516 -51 -87 -86 -179 -113 -297 l-24 -101 2 -3370 c1 -1853 5 -3379 9 -3390
3 -11 11 -40 17 -65 29 -126 94 -263 178 -376 54 -72 179 -198 230 -231 15
-10 34 -24 42 -31 7 -7 63 -37 125 -67 117 -56 233 -89 351 -100 87 -7 10896
-8 10948 -1 20 4 54 8 74 11 335 48 669 318 804 650 7 17 13 35 15 40 1 6 12
42 23 81 11 40 24 98 28 130 4 33 7 1558 7 3389 0 3116 -1 3335 -17 3410 -83
382 -359 691 -721 806 -111 36 -224 48 -457 49 -122 0 -224 2 -226 4 -2 1 -5
560 -7 1242 -2 681 -6 1253 -9 1269 -3 17 -8 66 -11 110 -3 44 -8 91 -10 105
-2 14 -7 52 -11 85 -31 293 -117 662 -230 986 -158 453 -441 971 -730 1335
-22 28 -53 68 -70 89 -16 21 -34 43 -40 49 -5 6 -50 58 -100 116 -87 102 -354
375 -464 475 -609 554 -1320 940 -2080 1129 -79 20 -158 39 -175 41 -17 3 -38
8 -46 10 -8 2 -35 7 -60 10 -24 4 -47 8 -50 10 -3 1 -25 6 -50 9 -25 3 -54 8
-65 10 -11 2 -47 7 -80 11 -33 5 -67 9 -75 10 -8 1 -49 5 -90 9 -41 5 -88 10
-105 12 -41 5 -503 22 -508 18z m363 -2157 c14 -3 54 -8 90 -12 36 -3 72 -8
80 -10 8 -2 32 -6 52 -9 21 -3 57 -10 80 -15 24 -6 54 -12 68 -14 14 -3 66
-16 115 -30 510 -145 979 -443 1350 -858 82 -92 96 -109 180 -221 310 -411
496 -921 532 -1454 4 -60 7 -615 7 -1234 l1 -1125 -2858 -3 -2857 -2 1 1157
c1 1144 4 1274 34 1448 45 261 90 424 175 635 81 203 242 471 403 673 81 101
320 348 407 419 25 21 61 50 80 66 118 97 306 219 475 306 104 55 333 148 420
171 33 9 92 25 130 36 39 10 86 22 105 25 19 3 43 7 52 10 40 12 176 31 278
40 35 3 66 7 68 9 5 5 504 -2 532 -8z m-45 -6438 c133 -23 240 -57 360 -115
330 -157 613 -473 733 -816 56 -159 77 -296 75 -498 -3 -368 -135 -686 -400
-966 -88 -93 -265 -228 -350 -267 -13 -6 -23 -15 -23 -21 0 -7 18 -72 41 -146
22 -74 52 -173 66 -220 13 -47 36 -121 50 -165 14 -44 29 -93 33 -110 5 -16
18 -61 30 -100 11 -38 23 -77 25 -85 2 -8 21 -73 43 -145 37 -120 130 -426
393 -1300 97 -323 110 -383 94 -455 -26 -123 -154 -249 -277 -276 -34 -7
-2257 -7 -2297 1 -143 26 -278 178 -286 321 -4 70 -7 58 143 554 27 91 52 174
55 185 3 11 17 56 30 100 85 273 129 423 133 444 3 14 7 28 10 32 2 4 36 112
74 241 39 128 81 269 95 313 13 44 43 141 65 215 23 74 56 187 75 250 19 63
50 167 69 230 32 110 33 140 5 140 -8 0 -146 87 -159 100 -3 3 -23 19 -45 35
-156 116 -334 340 -417 525 -55 121 -77 191 -113 365 -4 17 -8 107 -10 200 -5
257 31 435 130 641 109 226 232 369 490 572 22 17 133 81 190 110 109 54 298
109 430 125 93 11 339 3 440 -14z"/>
</g>
</svg>
